Coordinates
version=1
nRows=12
nColumns=24
inDegrees=yes

Units are S.I. units (second, meters, Newtons, ...)
Angles are in degrees.

endheader
time	pelvis_tilt	pelvis_list	pelvis_rotation	pelvis_tx	pelvis_ty	pelvis_tz	hip_flexion_r	hip_adduction_r	hip_rotation_r	knee_angle_r	ankle_angle_r	subtalar_angle_r	mtp_angle_r	hip_flexion_l	hip_adduction_l	hip_rotation_l	knee_angle_l	ankle_angle_l	subtalar_angle_l	mtp_angle_l	lumbar_extension	lumbar_bending	lumbar_rotation
      1.82500000	      2.97618302	    -10.15130967	      5.73850586	      0.39869849	      0.91067181	      0.00791197	      2.63164920	     14.54570208	     -7.51856154	    -14.55626973	     18.65759300	     -4.84599043	     25.18022306	     19.56554443	     -7.95456413	      7.01622370	    -66.97205269	     17.13436392	     -0.52569716	     26.01871167	    -12.43247582	      9.12362634	     -4.93332637
      1.83000000	      3.07311997	     -9.99711832	      5.76434756	      0.40596288	      0.91137936	      0.00767843	      1.66123891	     14.51640967	     -7.03046656	    -13.90622307	     18.64678440	     -5.26368401	     24.99554271	     20.05928839	     -7.65344456	      6.96097870	    -66.03475715	     17.42892799	     -0.85425514	     25.85620504	    -12.56440357	      8.99337393	     -4.93924363
      1.83500000	      3.17581709	     -9.84067884	      5.78264295	      0.41321684	      0.91204349	      0.00745178	      0.68470549	     14.47916739	     -6.54821086	    -13.25738467	     18.62376837	     -5.66569262	     24.81744263	     20.51158390	     -7.36368483	      6.88932176	    -65.00622268	     17.67901535	     -1.18206004	     25.68809604	    -12.70687963	      8.85852026	     -4.94153918
      1.84000000	      3.28894115	     -9.68326008	      5.79075013	      0.42047342	      0.91267147	      0.00723744	     -0.30682545	     14.43558406	     -6.07835905	    -12.60484697	     18.58755811	     -6.05855089	     24.64420546	     20.91404253	     -7.08929495	      6.79750594	    -63.88533089	     17.88733133	     -1.50580914	     25.51158525	    -12.86410499	      8.71981179	     -4.93412967
      1.84500000	      3.39590287	     -9.52414333	      5.79290743	      0.42772154	      0.91323348	      0.00701969	     -1.28785775	     14.38110914	     -5.63726983	    -11.95989208	     18.54276222	     -6.42758324	     24.49106227	     21.28861111	     -6.82204655	      6.69749335	    -62.67918769	     18.06070316	     -1.82692316	     25.34268143	    -13.01745537	      8.57648761	     -4.93192897
      1.85000000	      3.53733715	     -9.38987654	      5.76680186	      0.43497850	      0.91377873	      0.00684541	     -2.31185548	     14.34880659	     -5.19732056	    -11.30490213	     18.47888545	     -6.74832841	     24.32843937	     21.58905643	     -6.61815289	      6.54971537	    -61.39123987	     18.22246145	     -2.10379810	     25.13168824	    -13.21174239	      8.45739521	     -4.89114909
      1.85500000	      3.61991563	     -9.22204343	      5.75669563	      0.44220398	      0.91419510	      0.00661260	     -3.24943478	     14.26413860	     -4.83966085	    -10.69329973	     18.43873976	     -7.06947199	     24.22271820	     21.91723557	     -6.35330250	      6.44235637	    -60.01290754	     18.30045229	     -2.42031126	     24.97267660	    -13.34248882	      8.30025922	     -4.87385196
      1.86000000	      3.74555451	     -9.07880265	      5.71292995	      0.44943127	      0.91460813	      0.00644642	     -4.23794055	     14.20251424	     -4.47657203	    -10.07472867	     18.36641950	     -7.33727949	     24.13522722	     22.16023484	     -6.15925221	      6.27674167	    -58.55420709	     18.37469163	     -2.69334118	     24.81873387	    -13.52871683	      8.16461279	     -4.82021908
      1.86500000	      3.86455502	     -8.94178112	      5.65487906	      0.45665190	      0.91495342	      0.00629586	     -5.20912478	     14.13749426	     -4.15387756	     -9.47615990	     18.29914873	     -7.55400334	     24.07701626	     22.37425062	     -5.98716958	      6.09498966	    -57.01602872	     18.41872565	     -2.94172021	     24.66447939	    -13.71007247	      8.03183830	     -4.75324436
      1.87000000	      3.96589710	     -8.81155018	      5.58106629	      0.46386979	      0.91520724	      0.00618117	     -6.14306386	     14.06902961	     -3.88976864	     -8.91255345	     18.23862198	     -7.72775055	     24.04660879	     22.57450826	     -5.84083424	      5.89007768	    -55.40717993	     18.42546960	     -3.16534279	     24.52434026	    -13.87344556	      7.89740521	     -4.67746862
      1.87500000	      4.07514264	     -8.69201976	      5.49107624	      0.47106492	      0.91542540	      0.00606303	     -7.07999068	     14.00137618	     -3.62541566	     -8.35890662	     18.16885044	     -7.83341158	     24.04467698	     22.72451389	     -5.71747408	      5.67655851	    -53.71052230	     18.41371634	     -3.36447416	     24.38648716	    -14.05213823	      7.77508261	     -4.57443865
      1.88000000	      4.18408587	     -8.57660125	      5.38230750	      0.47827357	      0.91558318	      0.00598608	     -8.00341163	     13.92938015	     -3.40948078	     -7.83334317	     18.11284793	     -7.89265593	     24.07427258	     22.83543113	     -5.62196740	      5.42761371	    -51.94133331	     18.37061447	     -3.53974111	     24.24938971	    -14.23055255	      7.64935392	     -4.45057686
